<svg xmlns="http://www.w3.org/2000/svg" width="800" height="800" fill="#9370DB" viewBox="0 0 32 32"><path d="m18.605 2.022-2.256 11.856 8.174.027-11.127 16.072 2.257-13.043-8.174-.029zm.001-1.999q-.081 0-.161.006c-.353.028-.587.147-.864.333a2 2 0 0 0-.522.507L5.852 15.701c-.442.607-.508 1.407-.168 2.076s1.026 1.093 1.779 1.099l5.773.042-1.815 10.694a2 2 0 0 0 1.18 2.204c.257.11.527.163.793.163.629 0 1.145-.294 1.533-.825l11.22-16.072a1.99 1.99 0 0 0 .168-2.076 2.01 2.01 0 0 0-1.779-1.098l-5.773-.01 1.796-9.402A2.002 2.002 0 0 0 18.677.027l-.071-.001z"/></svg>