<svg xmlns="http://www.w3.org/2000/svg" xmlns:xlink="http://www.w3.org/1999/xlink" width="800" height="800" viewBox="0 0 24 24"><defs><path id="a" d="M0 0h2v6H0z"/><path id="c" d="M14 19h3v-8a1 1 0 0 1 1-1h.586L11 2.414 3.414 10H4a1 1 0 0 1 1 1v8h3v-6a2 2 0 0 1 2-2h2a2 2 0 0 1 2 2zM3.001 12h-2c-.89 0-1.336-1.077-.706-1.707l9.998-10a1 1 0 0 1 1.414 0l9.998 10c.63.63.184 1.707-.707 1.707h-2v8a1 1 0 0 1-1 1H4.002a1 1 0 0 1-1-1zM10 13v6h2v-6z"/></defs><g fill="none" fill-rule="evenodd"><g transform="translate(11 14)"><mask id="b" fill="#fff"><use xlink:href="#a"/></mask><use xlink:href="#a"/><g mask="url(#b)"><path d="M-11-14h24v24h-24z"/></g></g><g transform="translate(1 1)"><mask id="d" fill="#fff"><use xlink:href="#c"/></mask><use xlink:href="#c" fill="#000" fill-rule="nonzero"/><g fill="#9370DB" mask="url(#d)"><path d="M-1-1h24v24H-1z"/></g></g></g></svg>