<svg xmlns="http://www.w3.org/2000/svg" width="45" height="45" fill="none"><path stroke="#9370DB" stroke-linecap="round" stroke-linejoin="round" stroke-width="1.5" d="M36.047 23.208a4.614 4.614 0 0 1 4.613-4.613V16.75c0-7.38-1.845-9.225-9.225-9.225h-18.45c-7.38 0-9.225 1.845-9.225 9.225v.923a4.614 4.614 0 0 1 4.612 4.612 4.614 4.614 0 0 1-4.612 4.613v.922c0 7.38 1.845 9.225 9.225 9.225h18.45c7.38 0 9.225-1.845 9.225-9.225a4.614 4.614 0 0 1-4.613-4.612M16.674 27.361l11.07-11.07"/><path stroke="#9370DB" stroke-linecap="round" stroke-linejoin="round" stroke-width="2" d="M27.733 27.36h.016M16.662 17.214h.017"/></svg>