<svg xmlns="http://www.w3.org/2000/svg" width="800" height="800" fill="none" viewBox="0 0 24 24"><path stroke="#9370DB" stroke-linecap="round" stroke-linejoin="round" stroke-width="1.5" d="M19 9v6a4 4 0 0 1-4 4H9a4 4 0 0 1-4-4V9a4 4 0 0 1 4-4h6a4 4 0 0 1 4 4" clip-rule="evenodd"/><path stroke="#9370DB" stroke-linecap="round" stroke-linejoin="round" stroke-width="1.5" d="m11.4 12.117 1.9 1.432a.47.47 0 0 1 0 .768l-1.9 1.566a.559.559 0 0 1-.9-.384v-3a.559.559 0 0 1 .9-.382" clip-rule="evenodd"/><path fill="#9370DB" d="M19 9.75a.75.75 0 0 0 0-1.5zm-7-1.5a.75.75 0 0 0 0 1.5zm-7 0a.75.75 0 0 0 0 1.5zm7 1.5a.75.75 0 0 0 0-1.5zM11.25 9a.75.75 0 0 0 1.5 0zm1.5-4a.75.75 0 0 0-1.5 0zM19 8.25h-7v1.5h7zM5 9.75h7v-1.5H5zM12.75 9V5h-1.5v4z"/></svg>